<svg xmlns="http://www.w3.org/2000/svg" xmlns:xlink="http://www.w3.org/1999/xlink" width="260" height="53" viewBox="0 0 260 53"><defs><clipPath id="a"><rect width="260" height="53" fill="none"/></clipPath></defs><g transform="translate(0 0)"><path d="M0,49.908H8.194l5.616-11.35,3.167-6.629,7.837-15.891,7.477,15.891,3.1,6.629,5.289,11.35h8.327L24.945.239Z" transform="translate(0 0.022)"/><path d="M58.495,21.687,78.118,3.134H88.273L65.483,24.187,88.4,49.636H78.216L60.062,28.945l-1.567,1.446V49.636H50.888V3.134h7.607Z" transform="translate(0.174 0.294)"/><rect width="7.607" height="46.503" transform="translate(94.815 3.428)"/><path d="M111.6,0v50.14h7.607V17.271L155.97,53V3.192h-7.608V35.819Z" transform="translate(0.089 0)"/><g transform="translate(0 0)"><g clip-path="url(#a)"><path d="M163.213,50.082V3.134h14.393a31.3,31.3,0,0,1,10.512,1.4,20.872,20.872,0,0,1,7.973,4.652q7.245,6.629,7.246,17.423,0,10.826-7.549,17.514a22.019,22.019,0,0,1-7.942,4.653,31.543,31.543,0,0,1-10.359,1.307Zm7.063-6.658h7.755a22.141,22.141,0,0,0,7.268-1,16.105,16.105,0,0,0,10.913-15.812,16.337,16.337,0,0,0-5.153-12.527c-3.093-2.858-7.006-4.287-13.028-4.287h-7.755Z" transform="translate(2.534 0.058)"/><path d="M207.842,26.411a23.028,23.028,0,0,1,7.247-17.028,23.808,23.808,0,0,1,17.34-7.116,23.368,23.368,0,0,1,17.158,7.177,23.5,23.5,0,0,1,7.186,17.24,23.12,23.12,0,0,1-7.216,17.18,24.681,24.681,0,0,1-33.771.79q-7.942-6.962-7.943-18.245m7.125.092a16.994,16.994,0,0,0,5.214,12.8,17.234,17.234,0,0,0,24.405-.092,17.316,17.316,0,0,0,5.062-12.588,17.232,17.232,0,0,0-5-12.59,17.418,17.418,0,0,0-24.646,0A16.962,16.962,0,0,0,214.967,26.5" transform="translate(3.227 0.042)"/><path d="M37.948,34.8a8.954,8.954,0,1,1-8.954-8.981A8.967,8.967,0,0,1,37.948,34.8" transform="translate(0.311 0.48)" fill="#c1272d"/><path d="M8.954-1.679A10.66,10.66,0,1,1-1.679,8.981,10.659,10.659,0,0,1,8.954-1.679Zm0,17.962a7.3,7.3,0,1,0-7.274-7.3A7.3,7.3,0,0,0,8.954,16.282Z" transform="translate(20.351 26.301)"/></g></g></g></svg>