<svg width="1641" height="258" viewBox="0 0 1641 258" fill="none" xmlns="http://www.w3.org/2000/svg">
<path d="M404.2 233.9C341.2 233.9 295.9 188.3 295.9 125C295.9 61.7001 341.2 16.1001 404.2 16.1001C459.4 16.1001 501.4 50.6001 510.7 103.4H453.7C446.8 83.0001 428.2 70.1001 405.4 70.1001C375.4 70.1001 353.8 92.9001 353.8 125C353.8 157.1 375.4 179.9 405.4 179.9C428.8 179.9 448 166.1 454.6 144.5H511.3C502.6 198.5 460.3 233.9 404.2 233.9Z" fill="black"/>
<path d="M697.396 165.8H580.696C585.196 180.5 596.896 188.6 613.996 188.6C624.496 188.6 634.096 184.7 639.796 179.3H694.396C682.996 212.9 651.796 233.6 613.696 233.6C564.196 233.6 528.196 198.8 528.196 150.5C528.196 101.9 564.196 67.4001 613.696 67.4001C669.496 67.4001 706.396 110 697.396 165.8ZM580.696 135.2H647.896C643.696 121.1 631.996 112.1 614.296 112.1C597.196 112.1 585.496 120.8 580.696 135.2Z" fill="black"/>
<path d="M825.203 68.0001C866.303 68.0001 885.503 95.3001 885.503 136.7V230H832.103V142.7C832.103 125 823.403 115.4 807.803 115.4C790.403 115.4 779.003 125.6 779.003 143.6V230H725.903V71.0001H774.803L776.603 89.0001C788.303 75.2001 805.703 68.0001 825.203 68.0001Z" fill="black"/>
<path d="M1006.88 187.7C1011.38 187.7 1016.48 187.4 1021.58 186.8V230C1010.78 232.1 1000.88 233.3 991.577 233.3C954.977 233.3 930.977 215 930.977 174.5V114.8H904.877V71.0001H930.977V38.6001L984.377 33.2001V71.0001H1019.48V114.8H984.377V167C984.377 182.9 992.477 187.7 1006.88 187.7Z" fill="black"/>
<path d="M1143.2 68.6001C1149.2 68.6001 1155.2 69.5001 1161.5 71.0001V119.9C1154.3 118.4 1148 117.8 1142 117.8C1118 117.8 1104.2 130.7 1104.2 155.6V230H1051.1V71.0001H1099.7L1101.5 87.2001C1111.4 74.9001 1126.4 68.6001 1143.2 68.6001Z" fill="black"/>
<path d="M1288.46 156.5V71.0001H1341.56V230H1292.36L1290.86 212.9C1279.16 226.1 1262.36 233 1243.16 233C1205.36 233 1183.46 208.7 1183.46 164.3V71.0001H1236.56V157.7C1236.56 175.7 1245.26 185.6 1259.66 185.6C1277.36 185.6 1288.46 174.5 1288.46 156.5Z" fill="black"/>
<path d="M1580.27 68.0001C1619.27 68.0001 1640.57 92.3001 1640.57 136.7V230H1587.47V143C1587.47 125.3 1578.77 115.4 1563.47 115.4C1546.37 115.4 1535.57 126.2 1535.57 143V230H1482.47V143C1482.47 125.3 1474.07 115.4 1458.47 115.4C1441.37 115.4 1430.57 126.2 1430.57 143V230H1377.47V71.0001H1426.37L1428.17 88.7001C1438.97 75.5001 1456.07 68.0001 1476.17 68.0001C1498.37 68.0001 1515.17 77.0001 1524.47 94.1001C1538.87 76.7001 1557.47 68.0001 1580.27 68.0001Z" fill="black"/>
<path fill-rule="evenodd" clip-rule="evenodd" d="M258 129C258 200.245 200.245 258 129 258C57.7553 258 0 200.245 0 129C0 57.7553 57.7553 0 129 0C200.245 0 258 57.7553 258 129ZM207 129C207 172.078 172.078 207 129 207C85.9218 207 51 172.078 51 129C51 85.9218 85.9218 51 129 51C172.078 51 207 85.9218 207 129ZM129 179C156.614 179 179 156.614 179 129C179 101.386 156.614 79 129 79C101.386 79 79 101.386 79 129C79 156.614 101.386 179 129 179Z" fill="black"/>
</svg>
